<svg width="76" height="90" viewBox="0 0 76 90" fill="none" xmlns="http://www.w3.org/2000/svg">
<path d="M66.6002 25.7001C66.6002 25.7001 64.4002 12.8001 60.0002 6.40009C55.6002 8.96454e-05 37.4002 8.91052e-05 37.4002 8.91052e-05C37.4002 8.91052e-05 19.2002 -0.0999103 14.8002 6.40009C10.4002 12.8001 8.2002 25.7001 8.2002 25.7001C8.2002 25.7001 11.2002 28.5001 37.4002 29.1001C63.6002 28.5001 66.6002 25.7001 66.6002 25.7001Z" fill="#161B22"/>
<path d="M70.7 48.4001C69.9 47.7001 69 46.5001 69 46.5001C70.5 46.1001 70.5 45.4001 70.5 45.4001C70.5 45.4001 70.5 43.1001 70.5 40.1001C70.5 40.1001 70.7 40.1001 71.1 40.1001C71.9 40.1001 71.8 39.4001 71.8 39.4001C71.8 39.4001 71.8 37.3001 71.8 36.2001C71.8 35.1001 70.9 35.3001 70.9 35.3001H70.4C70.4 33.8001 70.3 32.4001 70.2 31.3001C70.1 29.8001 67.3 30.0001 67.3 30.0001C62.5 33.1001 37.5 33.2001 37.5 33.2001C37.5 33.2001 12.5 33.1001 7.7 30.0001C7.7 30.0001 4.9 29.8001 4.8 31.3001C4.7 32.4001 4.6 33.8001 4.6 35.3001H4.2C4.2 35.3001 3.3 35.1001 3.3 36.2001C3.3 37.3001 3.3 39.4001 3.3 39.4001C3.3 39.4001 3.2 40.1001 4 40.1001C4.4 40.1001 4.5 40.1001 4.6 40.1001C4.6 43.0001 4.6 45.4001 4.6 45.4001C4.6 45.4001 4.5 46.1001 6.1 46.5001C6.1 46.5001 5.2 47.7001 4.4 48.4001C2 50.1001 0 53.6001 0 56.9001C0 60.1001 2.1 62.5001 2.1 62.5001C2.2 62.9001 2.3 63.2001 2.4 63.5001C3.1 61.5001 3 62.7001 2.9 64.9001C3.1 65.3001 3.2 65.7001 3.4 66.0001C4 63.9001 4.1 64.9001 4 67.2001C4.2 67.5001 4.4 67.8001 4.6 68.1001C5.3 66.2001 5.6 67.1001 5.2 69.0001C5.5 69.4001 5.7 69.7001 6 70.2001L5.6 74.3001C5.6 79.5001 8.7 84.8001 17.3 88.6001C19.5 89.6001 21.5 89.9001 23.3 89.9001C25.7 89.9001 28.3 89.6001 29.4 88.7001C30.5 87.8001 32.1 79.7001 32.9 78.3001C34.7 75.4001 37.4 75.3001 37.4 75.3001C37.4 75.3001 40.1 75.4001 42 78.3001C42.9 79.7001 44.3 87.4001 45.5 88.7001C46.8 90.0001 49.2 89.9001 51.6 89.9001C53.5 89.9001 55.5 89.5001 57.6 88.6001C66.1 84.8001 69.3 79.5001 69.3 74.3001L69.1 70.2001C69.5 69.6001 69.9 69.1001 70.2 68.7001C69.8 66.8001 70.1 65.9001 70.8 67.7001C71 67.4001 71.2 67.0001 71.4 66.7001C71.1 64.6001 71.3 63.6001 72 65.5001C72.2 65.2001 72.3 64.8001 72.5 64.4001V64.3001C72.2 62.3001 72.1 61.1001 72.9 62.9001C72.9 62.7001 73 62.6001 73 62.4001C73 62.4001 75.1 60.0001 75.1 56.8001C75.1 53.6001 73.1 50.1001 70.7 48.4001ZM15.4 49.1001C11.7 48.3001 10.1 44.5001 9.6 39.1001C9.2 34.5001 11.4 35.6001 11.4 35.6001C11.4 35.6001 19.5 37.0001 31.2 37.4001C31.2 37.4001 34.4 37.0001 34.4 38.7001C34.4 40.5001 31 42.5001 28.7 43.8001C26.4 45.2001 17.9 49.6001 15.4 49.1001ZM26.5 80.7001C26.5 83.9001 23.9 86.4001 20.8 86.4001C17.6 86.4001 15.1 83.8001 15.1 80.7001C15.1 77.5001 17.7 75.0001 20.8 75.0001C23.9 74.9001 26.5 77.5001 26.5 80.7001ZM59.7 80.6001C59.7 83.8001 57.1 86.4001 53.9 86.4001C50.7 86.4001 48.1 83.8001 48.1 80.6001C48.1 77.4001 50.7 74.8001 53.9 74.8001C57.1 74.8001 59.7 77.4001 59.7 80.6001ZM45.6 62.1001C42 60.7001 37.5 60.5001 37.5 60.5001C37.5 60.5001 33 60.6001 29.4 62.1001C25.8 63.5001 10.9 66.9001 10.9 66.9001C16.6 64.5001 26.8 59.0001 30.2 57.0001C33.6 55.1001 37.5 55.2001 37.5 55.2001C37.5 55.2001 41.4 55.0001 44.8 57.0001C48.2 58.9001 58.4 64.4001 64.1 66.9001C64.1 66.9001 49.2 63.5001 45.6 62.1001ZM66.2 39.1001C65.7 44.5001 64 48.3001 60.4 49.1001C58 49.6001 49.4 45.2001 47.1 43.9001C44.8 42.6001 41.4 40.6001 41.4 38.8001C41.4 37.0001 44.6 37.5001 44.6 37.5001C56.3 37.0001 64.4 35.7001 64.4 35.7001C64.4 35.7001 66.6 34.5001 66.2 39.1001Z" fill="#161B22"/>
</svg>
