<svg width="49" height="64" viewBox="0 0 49 64" fill="none" xmlns="http://www.w3.org/2000/svg">
<path d="M27.3594 63.2563C27.3594 63.4361 27.3682 63.6012 27.3773 63.7661C33.3346 62.9425 38.8221 59.8729 42.6474 55.2254C41.0381 54.1079 39.104 53.498 37.1182 53.498C31.737 53.498 27.3594 57.8756 27.3594 63.2563Z" fill="#A65014"/>
<path d="M29.4515 54.9177L24.7043 50.1709C22.3498 52.1491 19.3179 53.3457 16.0092 53.3457C13.5486 53.3457 11.2463 52.6756 9.25564 51.5238L5.52637 55.2531C9.94649 60.5925 16.622 64.0001 24.0789 64.0001C24.6603 64.0001 25.2285 63.9723 25.797 63.9314C25.7833 63.7138 25.7726 63.4928 25.7726 63.2563C25.7726 59.9576 27.1964 56.9926 29.4515 54.9177ZM10.7039 54.9666C10.7039 55.4046 10.3485 55.7599 9.91053 55.7599C9.47251 55.7599 9.11714 55.4046 9.11714 54.9666C9.11714 54.5285 9.47251 54.1355 9.91053 54.1355C10.3485 54.1355 10.7039 54.4536 10.7039 54.8917V54.9666ZM25.5412 54.1897C25.5412 54.6277 25.1858 54.9831 24.7478 54.9831C24.3098 54.9831 23.9544 54.6277 23.9544 54.1897C23.9544 53.7517 24.3098 53.3586 24.7478 53.3586C25.1858 53.3586 25.5412 53.6768 25.5412 54.1148V54.1897Z" fill="#CDD5E4"/>
<path d="M21.4999 8.69126C22.8725 8.69126 23.9852 7.57857 23.9852 6.20598C23.9852 4.8334 22.8725 3.7207 21.4999 3.7207C20.1273 3.7207 19.0146 4.8334 19.0146 6.20598C19.0146 7.57857 20.1273 8.69126 21.4999 8.69126Z" fill="#565C6C"/>
<path d="M2.46746 39.8035C2.46746 34.7423 5.26291 30.3277 9.38656 28.0041L6.39767 23.5635C2.36157 27.9145 0 33.697 0 39.9218C0 45.1682 1.6917 50.0242 4.5512 53.9837L7.9067 50.6282C4.61221 48.1557 2.46746 44.2304 2.46746 39.8035ZM6.51343 27.803V27.8779C6.51343 28.928 4.92665 28.9273 4.92665 27.8779C4.92665 26.7798 6.51343 26.8022 6.51343 27.803ZM5.28719 50.5711C5.28719 51.0091 4.93182 51.3645 4.4938 51.3645C4.05578 51.3645 3.70041 51.0091 3.70041 50.5711C3.70041 50.1331 4.05578 49.7405 4.4938 49.7405C4.93182 49.7405 5.28719 50.0582 5.28719 50.4962V50.5711Z" fill="#CDD5E4"/>
<path d="M33.0101 16.0957L34.8055 12.7383H13.3525L15.148 16.0957H33.0101Z" fill="#9E9C98"/>
<path d="M34.3685 33.0488L28.4113 34.3875C29.1393 36.0479 29.5497 37.8778 29.5497 39.8039C29.5497 43.392 28.1374 46.6495 25.8516 49.0752L30.6925 53.9157C32.5208 52.6543 34.7329 51.9113 37.1174 51.9113C39.45 51.9113 41.7226 52.6379 43.6086 53.9648C45.9159 50.7688 47.3899 47.0788 47.9156 43.1816C47.1908 43.3301 46.4394 43.4134 45.6639 43.4134C39.7397 43.4134 34.8681 38.8463 34.3685 33.0488ZM31.9857 49.1293C31.9857 49.5673 31.6303 49.9227 31.1923 49.9227C30.7543 49.9227 30.3989 49.5673 30.3989 49.1293C30.3989 48.6913 30.7542 48.2987 31.1923 48.2987C31.6303 48.2987 31.9857 48.6169 31.9857 49.0549V49.1293ZM33.0833 37.2202C33.0833 37.6582 32.7279 38.0136 32.2899 38.0136C31.8519 38.0136 31.4965 37.6582 31.4965 37.2202C31.4965 36.7822 31.8519 36.3896 32.2899 36.3896C32.7279 36.3896 33.0833 36.7073 33.0833 37.1453V37.2202ZM43.7207 47.6964C43.7207 48.1344 43.3653 48.4898 42.9273 48.4898C42.4893 48.4898 42.1339 48.1344 42.1339 47.6964C42.1339 47.2584 42.4893 46.8658 42.9273 46.8658C43.3653 46.8658 43.7207 47.184 43.7207 47.622V47.6964Z" fill="#CDD5E4"/>
<path d="M41.4704 23.291C38.0815 24.8965 35.9062 28.2714 35.9062 32.068C35.9062 37.4487 40.2833 41.8263 45.6645 41.8263C46.5182 41.8263 47.3262 41.6962 48.0974 41.4896C48.1333 40.9929 48.1573 40.4821 48.1573 39.9218C48.1573 33.6722 45.7759 27.7963 41.4704 23.291Z" fill="#A65014"/>
<path d="M16.0084 26.2627C20.9648 26.2627 25.2952 28.9473 27.6552 32.9308L34.3427 31.428C34.5621 27.4756 36.7968 23.9739 40.2455 22.1134C38.1914 20.2587 35.8247 18.7252 33.2982 17.6826H14.8586C12.0897 18.8278 9.62601 20.4445 7.53516 22.4127L10.8238 27.2986C12.422 26.6336 14.1722 26.2627 16.0084 26.2627ZM30.3096 27.5323C30.7476 27.5323 31.1029 27.8505 31.1029 28.2885V28.3634C31.1029 28.8014 30.7476 29.1568 30.3096 29.1568C29.8715 29.1568 29.5162 28.8014 29.5162 28.3634C29.5162 27.9254 29.8715 27.5323 30.3096 27.5323ZM12.5451 23.3081V23.383C12.5451 24.4331 10.9583 24.4324 10.9583 23.383C10.9583 22.287 12.5451 22.3049 12.5451 23.3081Z" fill="#CDD5E4"/>
<path d="M16.0092 27.8496C9.4173 27.8496 4.05469 33.2122 4.05469 39.8041C4.05469 46.3961 9.41729 51.7592 16.0092 51.7592C22.6012 51.7592 27.9638 46.3961 27.9638 39.8041C27.9638 33.2122 22.6012 27.8496 16.0092 27.8496Z" fill="#A65014"/>
<path d="M24.8324 0H23.3257C17.6913 0 13.2703 5.82438 12.8623 11.1513H35.2958C34.8878 5.82438 30.4668 0 24.8324 0ZM21.5003 10.2784C19.2549 10.2784 17.4285 8.45145 17.4285 6.2061C17.4285 3.96075 19.2549 2.1343 21.5003 2.1343C23.7456 2.1343 25.5721 3.96075 25.5721 6.2061C25.5721 8.45145 23.7456 10.2784 21.5003 10.2784ZM31.1929 9.39411C30.7549 9.39411 30.3996 9.03874 30.3996 8.60072C30.3996 8.1627 30.7549 7.76963 31.1929 7.76963C31.631 7.76963 31.9863 8.08781 31.9863 8.52583V8.60073C31.9863 9.03874 31.631 9.39411 31.1929 9.39411Z" fill="#C4D5E5"/>
</svg>
