<svg width="49" height="64" viewBox="0 0 49 64" fill="none" xmlns="http://www.w3.org/2000/svg">
<path d="M27.3589 63.2563C27.3589 63.4361 27.3677 63.6012 27.3768 63.7661C33.3341 62.9425 38.8216 59.8729 42.6469 55.2254C41.0376 54.1079 39.1035 53.498 37.1177 53.498C31.7365 53.498 27.3589 57.8756 27.3589 63.2563Z" fill="#AB6531"/>
<path d="M29.451 54.9177L24.7038 50.1709C22.3493 52.1491 19.3174 53.3457 16.0087 53.3457C13.5481 53.3457 11.2458 52.6756 9.25515 51.5238L5.52588 55.2531C9.946 60.5925 16.6216 64.0001 24.0784 64.0001C24.6598 64.0001 25.228 63.9723 25.7965 63.9314C25.7828 63.7138 25.7721 63.4928 25.7721 63.2563C25.7721 59.9576 27.1959 56.9926 29.451 54.9177ZM10.7034 54.9666C10.7034 55.4046 10.3481 55.7599 9.91004 55.7599C9.47202 55.7599 9.11665 55.4046 9.11665 54.9666C9.11665 54.5285 9.47202 54.1355 9.91004 54.1355C10.3481 54.1355 10.7034 54.4536 10.7034 54.8917V54.9666ZM25.5407 54.1897C25.5407 54.6277 25.1853 54.9831 24.7473 54.9831C24.3093 54.9831 23.9539 54.6277 23.9539 54.1897C23.9539 53.7517 24.3093 53.3586 24.7473 53.3586C25.1853 53.3586 25.5407 53.6768 25.5407 54.1148V54.1897Z" fill="#B6B9BE"/>
<path d="M21.4999 8.69175C22.8725 8.69175 23.9852 7.57905 23.9852 6.20647C23.9852 4.83389 22.8725 3.72119 21.4999 3.72119C20.1273 3.72119 19.0146 4.83389 19.0146 6.20647C19.0146 7.57905 20.1273 8.69175 21.4999 8.69175Z" fill="#676F7E"/>
<path d="M2.46746 39.8035C2.46746 34.7423 5.26291 30.3277 9.38656 28.0041L6.39767 23.5635C2.36157 27.9145 0 33.697 0 39.9218C0 45.1682 1.6917 50.0242 4.5512 53.9837L7.9067 50.6282C4.61221 48.1557 2.46746 44.2304 2.46746 39.8035ZM6.51343 27.803V27.8779C6.51343 28.928 4.92665 28.9273 4.92665 27.8779C4.92665 26.7798 6.51343 26.8022 6.51343 27.803ZM5.28719 50.5711C5.28719 51.0091 4.93182 51.3645 4.4938 51.3645C4.05578 51.3645 3.70041 51.0091 3.70041 50.5711C3.70041 50.1331 4.05578 49.7405 4.4938 49.7405C4.93182 49.7405 5.28719 50.0582 5.28719 50.4962V50.5711Z" fill="#B6B9BE"/>
<path d="M33.0098 16.0957L34.8053 12.7383H13.3523L15.1478 16.0957H33.0098Z" fill="#B7B3B4"/>
<path d="M34.369 33.0488L28.4118 34.3875C29.1398 36.0479 29.5502 37.8778 29.5502 39.8039C29.5502 43.392 28.1379 46.6495 25.8521 49.0752L30.693 53.9157C32.5213 52.6543 34.7334 51.9113 37.1179 51.9113C39.4505 51.9113 41.7231 52.6379 43.6091 53.9648C45.9164 50.7688 47.3904 47.0788 47.9161 43.1816C47.1913 43.3301 46.4399 43.4134 45.6644 43.4134C39.7401 43.4134 34.8686 38.8463 34.369 33.0488ZM31.9861 49.1293C31.9861 49.5673 31.6308 49.9227 31.1928 49.9227C30.7547 49.9227 30.3994 49.5673 30.3994 49.1293C30.3994 48.6913 30.7547 48.2987 31.1928 48.2987C31.6308 48.2987 31.9861 48.6169 31.9861 49.0549V49.1293ZM33.0838 37.2202C33.0838 37.6582 32.7284 38.0136 32.2904 38.0136C31.8524 38.0136 31.497 37.6582 31.497 37.2202C31.497 36.7822 31.8524 36.3896 32.2904 36.3896C32.7284 36.3896 33.0838 36.7073 33.0838 37.1453V37.2202ZM43.7212 47.6964C43.7212 48.1344 43.3658 48.4898 42.9278 48.4898C42.4898 48.4898 42.1344 48.1345 42.1344 47.6964C42.1344 47.2584 42.4898 46.8658 42.9278 46.8658C43.3658 46.8658 43.7212 47.184 43.7212 47.622V47.6964Z" fill="#B6B9BE"/>
<path d="M41.4702 23.291C38.0812 24.8965 35.906 28.2714 35.906 32.068C35.906 37.4487 40.2831 41.8263 45.6643 41.8263C46.518 41.8263 47.3259 41.6962 48.0971 41.4896C48.1331 40.9929 48.157 40.4821 48.157 39.9218C48.157 33.6722 45.7756 27.7963 41.4702 23.291Z" fill="#A85C2A"/>
<path d="M16.0087 26.2622C20.965 26.2622 25.2955 28.9468 27.6555 32.9303L34.3429 31.4275C34.5623 27.4751 36.797 23.9734 40.2458 22.1129C38.1917 20.2582 35.825 18.7247 33.2985 17.6821H14.8589C12.0899 18.8273 9.62625 20.444 7.5354 22.4122L10.8241 27.2981C12.4222 26.6331 14.1725 26.2622 16.0087 26.2622ZM30.3098 27.5318C30.7478 27.5318 31.1032 27.85 31.1032 28.288V28.3629C31.1032 28.8009 30.7478 29.1563 30.3098 29.1563C29.8718 29.1563 29.5164 28.8009 29.5164 28.3629C29.5164 27.9249 29.8718 27.5318 30.3098 27.5318ZM12.5453 23.3076V23.3825C12.5453 24.4326 10.9586 24.4319 10.9586 23.3825C10.9586 22.2865 12.5453 22.3044 12.5453 23.3076Z" fill="#B6B9BE"/>
<path d="M16.0087 27.8491C9.41681 27.8491 4.0542 33.2117 4.0542 39.8037C4.0542 46.3956 9.4168 51.7587 16.0087 51.7587C22.6007 51.7587 27.9633 46.3956 27.9633 39.8037C27.9633 33.2117 22.6007 27.8491 16.0087 27.8491Z" fill="#A85C2A"/>
<path d="M24.8322 0H23.3254C17.691 0 13.2701 5.82438 12.8621 11.1513H35.2956C34.8876 5.82438 30.4666 0 24.8322 0ZM21.5 10.2784C19.2547 10.2784 17.4282 8.45145 17.4282 6.2061C17.4282 3.96075 19.2547 2.1343 21.5 2.1343C23.7454 2.1343 25.5718 3.96075 25.5718 6.2061C25.5718 8.45145 23.7454 10.2784 21.5 10.2784ZM31.1927 9.39411C30.7547 9.39411 30.3993 9.03874 30.3993 8.60072C30.3993 8.1627 30.7547 7.76963 31.1927 7.76963C31.6307 7.76963 31.9861 8.08781 31.9861 8.52583V8.60073C31.9861 9.03874 31.6307 9.39411 31.1927 9.39411Z" fill="#D3DFEF"/>
</svg>
