<svg width="101" height="64" viewBox="0 0 101 64" fill="none" xmlns="http://www.w3.org/2000/svg">
<path d="M81.9784 35.8309C81.7854 38.4159 81.2794 41.0009 80.4484 43.5289C83.0964 46.9169 84.1444 49.7479 83.1084 51.5439C80.2934 56.4189 63.1884 51.8149 44.9044 41.2579C26.6204 30.7019 14.0804 18.1909 16.8954 13.3149C17.9314 11.5199 20.9054 11.0109 25.1604 11.6099C26.9344 9.62592 28.9204 7.89492 31.0634 6.43492C15.3794 0.454917 3.35636 -0.892083 0.589357 3.90092C-3.61264 11.1779 15.1044 29.8499 42.3944 45.6059C69.6834 61.3619 95.2124 68.2349 99.4144 60.9579C102.182 56.1639 95.0024 46.4239 81.9784 35.8309Z" fill="#161B22"/>
<path d="M21.8057 21.5594C22.5017 22.3744 23.3107 23.2504 24.2527 24.1904C29.4517 29.3774 37.1247 35.0103 45.8557 40.0513C54.5867 45.0933 63.3017 48.9203 70.3937 50.8293C71.6757 51.1753 72.8357 51.4374 73.8867 51.6314C78.0987 46.4104 80.6217 39.7704 80.6217 32.5404C80.6217 15.7344 66.9977 2.11035 50.1917 2.11035C37.2587 2.11035 26.2107 10.1804 21.8057 21.5594Z" fill="#161B22"/>
<path d="M19.7647 32.3193C19.7647 32.3933 19.7627 32.4663 19.7627 32.5403C19.7627 49.3463 33.3867 62.9713 50.1927 62.9713C55.8167 62.9713 61.0837 61.4433 65.6037 58.7833C58.0397 55.7093 49.9287 51.7143 41.8247 47.0343C33.7217 42.3573 26.2077 37.3323 19.7647 32.3193Z" fill="#161B22"/>
</svg>
