<svg width="61" height="26" viewBox="0 0 61 26" fill="none" xmlns="http://www.w3.org/2000/svg">
<path d="M45.9659 8.488C45.6959 8.602 45.5199 8.929 45.5599 9.218C45.6729 10.041 45.8449 11.694 45.6559 13.144C45.4649 14.618 45.1079 16.394 44.9269 17.255C44.8689 17.54 45.0379 17.859 45.3209 17.932C52.1869 19.687 62.0959 5.098 60.6769 3.937C59.3859 2.883 48.4199 7.447 45.9659 8.488ZM59.1639 5.2C57.5659 10.791 47.6959 16.378 47.2759 16.613C47.2349 16.637 47.1909 16.647 47.1469 16.647C47.0539 16.647 46.9639 16.599 46.9169 16.512C46.8449 16.385 46.8919 16.224 47.0189 16.152C47.1149 16.098 56.1229 10.999 58.3569 5.88C58.4739 5.612 58.3319 5.479 58.0699 5.609C56.3689 6.456 52.4669 8.869 50.3959 10.15C49.3289 10.809 48.4849 11.331 48.0729 11.569C46.5729 12.434 47.0419 13.634 47.0619 13.684C47.1179 13.82 47.0529 13.974 46.9169 14.03C46.7809 14.086 46.6269 14.02 46.5729 13.884C46.5649 13.868 45.9119 12.205 47.8079 11.111C48.2139 10.877 49.0529 10.358 50.1169 9.7C57.7679 4.97 58.7159 4.59 59.0549 4.846C59.1369 4.908 59.2109 5.035 59.1639 5.2ZM15.2539 9.219C15.2939 8.93 15.1179 8.602 14.8479 8.489C12.3939 7.447 1.42689 2.884 0.136889 3.939C-1.28111 5.099 8.62789 19.689 15.4939 17.934C15.7769 17.862 15.9459 17.542 15.8869 17.257C15.7069 16.396 15.3519 14.619 15.1589 13.146C14.9689 11.695 15.1409 10.042 15.2539 9.219ZM14.2419 13.883C14.1869 14.019 14.0319 14.084 13.8969 14.029C13.7619 13.973 13.6969 13.819 13.7519 13.683C13.7719 13.634 14.2289 12.426 12.7409 11.568C12.3289 11.329 11.4849 10.808 10.4189 10.149C8.34689 8.868 4.44489 6.455 2.74389 5.608C2.48289 5.478 2.34089 5.61 2.45689 5.879C4.68889 11.001 13.6999 16.098 13.7959 16.152C13.9229 16.224 13.9679 16.385 13.8969 16.512C13.8489 16.599 13.7589 16.647 13.6659 16.647C13.6219 16.647 13.5779 16.637 13.5369 16.613C13.1169 16.379 3.24789 10.791 1.64989 5.2C1.60289 5.034 1.67489 4.908 1.75789 4.845C2.09789 4.589 3.04689 4.969 10.6959 9.699C11.7589 10.357 12.5989 10.876 13.0049 11.11C14.9019 12.204 14.2489 13.868 14.2419 13.883ZM38.9059 4.394C38.3869 3.605 37.1099 1.965 34.9019 0.927C34.6369 0.803 34.3939 0.739 34.3609 0.76C34.3399 0.771 34.3189 0.780999 34.2939 0.785999C33.7659 0.898999 33.6469 2.806 33.5599 4.198C33.5239 4.784 33.4879 5.383 33.4249 5.935C36.0579 5.385 37.8749 4.444 37.9009 4.431C38.0299 4.364 38.1889 4.413 38.2579 4.542C38.3249 4.671 38.2759 4.83 38.1469 4.898C38.0419 4.954 36.1289 5.946 33.3499 6.495C33.0639 8.252 31.8129 10.04 31.2569 10.765C31.7759 10.89 32.1669 11.12 32.4529 11.37C32.9589 10.486 35.2409 6.947 39.1949 7.308C43.6689 7.721 43.9249 12.828 43.9269 12.88C43.9349 12.976 44.1079 15.464 42.6389 17.063C41.8669 17.902 40.7879 18.333 39.4359 18.343H39.3989C35.3309 18.343 33.1039 13.694 32.4989 12.215C32.2369 11.818 31.6329 11.193 30.4069 11.193C29.5339 11.193 28.9459 11.509 28.5689 11.837C28.3179 12.531 26.0709 18.343 21.5219 18.343H21.4849C20.1319 18.332 19.0539 17.902 18.2819 17.063C16.8129 15.464 16.9859 12.976 16.9939 12.871C16.9959 12.829 17.2529 7.722 21.7259 7.309C25.5599 6.962 27.8199 10.272 28.4169 11.284C28.6119 11.14 28.8429 11.005 29.1169 10.899C28.6409 10.298 27.2769 8.443 26.9389 6.598C24.4189 6.153 22.7759 5.28 22.6819 5.228C22.5529 5.159 22.5059 4.999 22.5749 4.87C22.6439 4.741 22.8059 4.694 22.9329 4.764C22.9549 4.776 24.4969 5.595 26.8559 6.042C26.7889 5.461 26.7459 4.822 26.7079 4.198C26.6469 3.219 26.5689 1.988 26.3459 1.304C26.2549 1.026 25.8739 0.942 25.6139 1.076C23.5899 2.115 22.4019 3.642 21.9069 4.394C21.7459 4.638 21.3979 4.865 21.1089 4.905C14.4079 5.841 16.0839 13.215 16.0839 13.215C16.0839 13.215 16.5379 22.376 21.4799 24.104C21.7549 24.201 22.2179 24.305 22.5029 24.368C26.3649 25.214 29.0409 25.242 30.1159 25.206C30.4079 25.197 30.8789 25.199 31.1709 25.208C32.1659 25.24 34.5589 25.194 38.3109 24.368C38.5959 24.306 39.0589 24.201 39.3329 24.104C44.2749 22.376 44.7279 13.215 44.7279 13.215C44.7279 13.215 46.4049 5.841 39.7039 4.905C39.4149 4.865 39.0659 4.637 38.9059 4.394ZM31.4649 16.453C31.8009 16.396 31.8629 16.016 31.8639 16.013C31.8859 15.869 32.0249 15.773 32.1649 15.792C32.3089 15.814 32.4079 15.949 32.3859 16.093C32.3429 16.376 32.1169 16.881 31.5519 16.976C31.5359 16.978 31.5219 16.979 31.5079 16.979C31.3819 16.979 31.2699 16.887 31.2479 16.757C31.2239 16.613 31.3209 16.476 31.4649 16.453ZM28.8249 15.792C28.9659 15.771 29.1019 15.868 29.1259 16.011C29.1289 16.032 29.1979 16.399 29.5249 16.453C29.6689 16.476 29.7649 16.613 29.7419 16.757C29.7209 16.887 29.6079 16.979 29.4819 16.979C29.4669 16.979 29.4519 16.978 29.4379 16.976C28.8719 16.881 28.6469 16.376 28.6029 16.093C28.5819 15.949 28.6799 15.814 28.8249 15.792ZM25.7089 21.59L26.1059 23.374C26.1369 23.516 26.0469 23.656 25.9039 23.689C25.8849 23.693 25.8659 23.695 25.8459 23.695C25.7249 23.695 25.6159 23.611 25.5879 23.488L25.1919 21.703C24.9579 20.645 25.2609 19.008 25.8849 17.974L26.9419 16.224C27.0179 16.097 27.1799 16.059 27.3049 16.133C27.4299 16.209 27.4689 16.371 27.3939 16.495L26.3369 18.247C25.7849 19.164 25.5029 20.664 25.7089 21.59ZM33.6209 20.004C33.5599 20.138 33.4049 20.195 33.2709 20.136C30.6909 18.974 27.5569 20.131 27.5259 20.144C27.4949 20.155 27.4639 20.161 27.4329 20.161C27.3259 20.161 27.2249 20.096 27.1859 19.99C27.1329 19.853 27.2029 19.7 27.3389 19.649C27.4759 19.597 30.7119 18.403 33.4889 19.656C33.6219 19.715 33.6809 19.872 33.6209 20.004ZM35.8129 21.704L35.4169 23.489C35.3899 23.612 35.2789 23.696 35.1579 23.696C35.1389 23.696 35.1199 23.694 35.1009 23.69C34.9579 23.657 34.8679 23.516 34.8999 23.375L35.2959 21.591C35.5009 20.664 35.2199 19.164 34.6669 18.249L33.6099 16.497C33.5339 16.373 33.5739 16.211 33.6989 16.135C33.8239 16.061 33.9869 16.099 34.0619 16.226L35.1189 17.976C35.7439 19.008 36.0479 20.646 35.8129 21.704ZM28.0109 11.641C27.5759 10.894 25.5849 7.812 22.2819 7.812C22.1159 7.812 21.9469 7.819 21.7749 7.835C17.7559 8.206 17.5229 12.855 17.5209 12.902C17.5189 12.934 17.3589 15.281 18.6729 16.707C19.3419 17.434 20.2889 17.807 21.4879 17.814L21.5209 18.078V17.814C23.9569 17.814 25.7139 15.897 26.7949 14.193C25.9489 15.093 24.6839 16.03 23.0719 16.03C20.0399 16.03 18.5389 13.232 18.4769 13.113L18.4189 13.003L18.4669 12.888C18.5209 12.76 19.8249 9.753 22.8069 9.753C25.1969 9.753 27.0589 11.364 27.7119 12.013C27.7869 11.903 27.8849 11.776 28.0109 11.641ZM27.4019 6.136C28.2799 6.273 29.2559 6.35 30.2979 6.317C31.2079 6.29 32.0739 6.184 32.8799 6.039C32.9489 5.457 32.9929 4.805 33.0329 4.165C33.1149 2.841 33.1909 1.641 33.5059 0.927999C33.6219 0.659999 33.5679 0.414001 33.2849 0.339001C32.4899 0.128001 31.6099 0 30.6329 0H30.1809C29.0239 0 28.0049 0.181 27.1039 0.466C26.8259 0.554 26.7399 0.836999 26.8359 1.113C27.0909 1.838 27.1609 2.949 27.2359 4.165C27.2779 4.84 27.3239 5.53 27.4019 6.136ZM27.4939 6.685C27.9189 8.587 29.4979 10.535 29.6649 10.737C29.8899 10.692 30.1379 10.666 30.4069 10.666C30.4919 10.666 30.5719 10.673 30.6529 10.678C30.9719 10.281 32.4229 8.406 32.7929 6.596C32.0179 6.726 31.1879 6.819 30.3149 6.846C30.1499 6.851 29.9849 6.853 29.8239 6.853C28.9919 6.853 28.2149 6.787 27.4939 6.685ZM23.0059 10.976C24.0639 10.976 24.9219 11.834 24.9219 12.892C24.9219 13.95 24.0639 14.808 23.0059 14.808C21.9479 14.808 21.0899 13.95 21.0899 12.892C21.0899 11.834 21.9479 10.976 23.0059 10.976ZM37.3439 10.976C38.4019 10.976 39.2599 11.834 39.2599 12.892C39.2599 13.95 38.4019 14.808 37.3439 14.808C36.2859 14.808 35.4279 13.95 35.4279 12.892C35.4279 11.834 36.2859 10.976 37.3439 10.976ZM39.4319 17.815C40.6329 17.807 41.5799 17.434 42.2489 16.706C43.5649 15.275 43.3999 12.935 43.3989 12.913C43.3899 12.712 43.1559 8.206 39.1439 7.836C35.4179 7.489 33.2319 11.064 32.8679 11.711C32.8929 11.778 32.9329 11.876 32.9809 11.994C32.9909 12.009 32.9999 12.024 33.0089 12.039C33.6339 11.41 35.5129 9.753 37.9389 9.753C40.9199 9.753 42.2249 12.76 42.2789 12.888L42.3279 13.003L42.2689 13.113C42.2069 13.232 40.7069 16.03 37.6739 16.03C36.3569 16.03 35.2699 15.403 34.4539 14.684C35.5489 16.245 37.1959 17.814 39.3969 17.814V18.078L39.4319 17.815ZM19.0089 12.978C19.3109 13.477 20.6859 15.502 23.0719 15.502C25.4299 15.502 27.0399 13.136 27.4359 12.488C26.9459 11.987 25.1089 10.282 22.8079 10.282C20.4829 10.282 19.2699 12.448 19.0089 12.978ZM25.4509 12.892C25.4509 14.24 24.3549 15.336 23.0069 15.336C21.6589 15.336 20.5629 14.239 20.5629 12.892C20.5629 11.544 21.6599 10.448 23.0069 10.448C24.3539 10.448 25.4509 11.545 25.4509 12.892ZM41.7379 12.979C41.4759 12.449 40.2589 10.282 37.9399 10.282C35.6379 10.282 33.8019 11.987 33.3119 12.488C33.7089 13.136 35.3219 15.502 37.6749 15.502C40.0679 15.502 41.4369 13.479 41.7379 12.979ZM34.9009 12.892C34.9009 11.544 35.9969 10.448 37.3439 10.448C38.6929 10.448 39.7889 11.545 39.7889 12.892C39.7889 14.24 38.6919 15.336 37.3439 15.336C35.9969 15.337 34.9009 14.24 34.9009 12.892Z" fill="#161B22"/>
</svg>
