<svg width="1999" height="1998" viewBox="0 0 1999 1998" fill="none" xmlns="http://www.w3.org/2000/svg">
<path d="M702.078 1115.51C677.978 1139.61 664.778 1171.51 664.778 1205.51C664.778 1239.51 677.978 1271.51 702.078 1295.51C726.878 1320.31 759.478 1332.71 792.078 1332.71C824.678 1332.71 857.378 1320.31 882.078 1295.51C906.178 1271.41 919.378 1239.51 919.378 1205.51C919.378 1171.51 906.178 1139.51 882.078 1115.51C832.478 1065.81 751.678 1065.81 702.078 1115.51ZM834.978 1248.31C811.278 1272.01 772.778 1272.01 749.078 1248.31C737.678 1236.91 731.278 1221.61 731.278 1205.41C731.378 1189.21 737.678 1174.01 749.078 1162.51C760.878 1150.71 776.478 1144.81 791.978 1144.81C807.478 1144.81 823.078 1150.81 834.978 1162.51C846.378 1173.91 852.778 1189.21 852.778 1205.41C852.778 1221.61 846.378 1236.81 834.978 1248.31Z" fill="#161B22"/>
<path d="M451.585 1396.87C465.526 1382.93 465.527 1360.33 451.585 1346.38C437.643 1332.44 415.04 1332.44 401.098 1346.38C387.156 1360.33 387.156 1382.93 401.098 1396.87C415.04 1410.81 437.643 1410.81 451.585 1396.87Z" fill="#161B22"/>
<path d="M1448.89 266.666C1462.83 252.725 1462.83 230.121 1448.89 216.179C1434.95 202.238 1412.34 202.238 1398.4 216.179C1384.46 230.121 1384.46 252.725 1398.4 266.666C1412.34 280.608 1434.95 280.608 1448.89 266.666Z" fill="#161B22"/>
<path d="M1216.19 366.393C1230.13 352.451 1230.13 329.848 1216.19 315.906C1202.24 301.964 1179.64 301.964 1165.7 315.906C1151.76 329.848 1151.76 352.451 1165.7 366.393C1179.64 380.334 1202.24 380.334 1216.19 366.393Z" fill="#161B22"/>
<path d="M1781.33 599.126C1795.27 585.185 1795.27 562.581 1781.33 548.639C1767.39 534.698 1744.79 534.698 1730.84 548.639C1716.9 562.581 1716.9 585.185 1730.84 599.126C1744.79 613.068 1767.39 613.068 1781.33 599.126Z" fill="#161B22"/>
<path d="M1681.6 831.746C1695.54 817.805 1695.54 795.201 1681.6 781.259C1667.66 767.318 1645.05 767.318 1631.11 781.259C1617.17 795.201 1617.17 817.805 1631.11 831.746C1645.05 845.688 1667.66 845.688 1681.6 831.746Z" fill="#161B22"/>
<path d="M252.205 1396.84C266.147 1382.9 266.147 1360.3 252.205 1346.36C238.263 1332.41 215.66 1332.41 201.718 1346.36C187.776 1360.3 187.777 1382.9 201.718 1396.84C215.66 1410.78 238.263 1410.78 252.205 1396.84Z" fill="#161B22"/>
<path d="M385.097 1662.78C399.038 1648.84 399.038 1626.24 385.097 1612.3C371.155 1598.35 348.551 1598.35 334.61 1612.3C320.668 1626.24 320.668 1648.84 334.61 1662.78C348.551 1676.72 371.155 1676.72 385.097 1662.78Z" fill="#161B22"/>
<path d="M651.09 1795.81C665.031 1781.87 665.031 1759.27 651.09 1745.32C637.148 1731.38 614.544 1731.38 600.603 1745.32C586.661 1759.27 586.661 1781.87 600.603 1795.81C614.544 1809.75 637.148 1809.75 651.09 1795.81Z" fill="#161B22"/>
<path d="M518.185 1529.76C532.126 1515.82 532.126 1493.21 518.184 1479.27C504.243 1465.33 481.639 1465.33 467.698 1479.27C453.756 1493.21 453.756 1515.82 467.698 1529.76C481.639 1543.7 504.243 1543.7 518.185 1529.76Z" fill="#161B22"/>
<path d="M651.108 1596.33C665.05 1582.38 665.05 1559.78 651.108 1545.84C637.167 1531.9 614.563 1531.9 600.621 1545.84C586.68 1559.78 586.68 1582.38 600.621 1596.33C614.563 1610.27 637.167 1610.27 651.108 1596.33Z" fill="#161B22"/>
<path d="M1989.98 419.006L1843.38 272.406C1838.08 267.106 1830.88 264.106 1823.38 264.106C1815.88 264.106 1808.68 267.106 1803.38 272.406L1590.78 485.006L1513.38 407.606L1725.88 195.006C1736.98 183.906 1736.98 166.006 1725.88 154.906L1579.18 8.30605C1570.88 0.00605202 1558.38 -2.29395 1547.58 2.40605L468.878 481.906C467.778 482.406 466.778 482.906 465.678 483.606C423.678 502.706 382.978 525.706 344.678 551.906L335.278 558.406C329.078 562.706 324.778 569.206 323.478 576.606C322.078 584.006 323.778 591.706 328.078 597.906L334.778 607.606L194.178 748.206L184.478 741.506C178.278 737.206 170.578 735.606 163.178 736.906C155.778 738.306 149.178 742.506 144.978 748.706L138.478 758.106C-76.9217 1072.11 -37.5217 1495.71 232.178 1765.31C269.878 1803.01 311.478 1837.01 355.678 1866.21C398.978 1894.81 445.278 1919.31 493.278 1938.81C540.678 1958.11 590.178 1972.91 640.478 1982.71C690.478 1992.51 741.778 1997.41 792.678 1997.41C871.078 1997.41 948.678 1985.81 1023.38 1963.01C1100.18 1939.61 1172.78 1904.51 1239.28 1858.91L1248.68 1852.41C1254.88 1848.11 1259.18 1841.61 1260.48 1834.21C1261.88 1826.81 1260.18 1819.11 1255.88 1812.91L1248.48 1802.21L1388.88 1661.81L1399.58 1669.21C1405.78 1673.51 1413.48 1675.11 1420.88 1673.81C1428.28 1672.41 1434.88 1668.21 1439.08 1662.01L1445.58 1652.61C1467.98 1620.01 1487.88 1585.81 1504.78 1550.91L1611.18 1610.11C1622.28 1616.31 1636.08 1614.31 1644.98 1605.41L1784.68 1465.71C1785.78 1464.61 1786.78 1463.41 1787.68 1462.11L1960.08 1220.81C1968.18 1209.51 1966.88 1194.11 1957.08 1184.31L1843.88 1070.81C1834.08 1061.01 1818.68 1059.71 1807.38 1067.81L1681.68 1157.61L1995.78 450.706C2000.58 439.906 1998.28 427.306 1989.98 419.006ZM1534.38 541.406L1158.58 917.206L1081.18 839.806L1456.98 464.006L1534.38 541.406ZM1004.88 1590.01L1026.58 1621.41C996.878 1638.21 965.278 1651.81 932.678 1661.81C900.078 1671.81 866.278 1678.31 831.978 1681.11V1477.31C859.278 1473.31 885.578 1465.41 910.378 1453.51L923.478 1472.41C930.178 1485.21 943.578 1493.91 958.978 1493.91C981.078 1493.91 999.078 1476.01 999.078 1453.81C999.078 1443.61 995.278 1434.41 989.078 1427.31L976.478 1409.01C979.978 1405.81 983.278 1402.81 986.378 1399.81C986.478 1399.71 986.578 1399.61 986.578 1399.61C989.878 1396.31 992.978 1393.01 995.878 1389.71L1206.58 1535.61L1122.38 1619.81L1069.88 1544.01C1068.38 1541.31 1066.68 1538.81 1064.68 1536.51L1064.38 1536.11C1057.08 1527.91 1046.38 1522.81 1034.58 1522.81C1012.48 1522.81 994.478 1540.71 994.478 1562.91C994.478 1573.41 998.378 1582.81 1004.88 1590.01ZM1040.18 1323.71C1044.18 1315.41 1047.68 1307.01 1050.68 1298.61L1228.98 1397.61C1222.58 1412.11 1215.48 1426.21 1207.88 1439.81L1040.18 1323.71ZM1021.48 1054.21C1011.28 1038.71 999.478 1024.21 986.378 1011.11C973.478 998.206 959.378 986.606 944.178 976.606L1024.68 896.106L1102.08 973.506L1021.48 1054.21ZM929.878 748.606C961.778 758.106 992.578 771.006 1021.58 786.906L867.278 941.006C855.478 937.706 843.678 935.206 831.878 933.506V730.206C865.178 732.906 898.078 739.106 929.878 748.606ZM831.878 650.506V494.206C896.878 497.806 960.578 510.006 1021.28 530.606C1081.68 551.106 1139.18 579.806 1192.28 616.006L1079.68 728.606C1005.18 683.606 919.678 656.706 831.878 650.506ZM1211.28 977.006C1225.58 1003.11 1237.38 1030.71 1246.48 1059.01C1255.48 1087.01 1261.88 1116.11 1265.58 1145.41L1089.18 1098.91L1211.28 977.006ZM1547.78 89.5061L1633.28 175.006L1249.38 558.906C1186.68 514.406 1118.28 479.406 1045.98 455.006C972.778 430.306 896.078 416.506 817.678 413.906L1547.78 89.5061ZM581.478 524.606C636.678 507.606 694.078 497.306 752.378 494.206V650.606C710.478 653.606 668.978 661.206 628.978 673.406C588.178 685.806 548.978 702.906 512.378 724.206L423.578 595.906C473.178 565.506 526.278 541.606 581.478 524.606ZM376.578 874.506L461.078 790.006L607.678 1001.81C604.178 1005.01 600.878 1008.11 597.678 1011.11C594.378 1014.41 591.278 1017.81 588.178 1021.21L376.578 874.506ZM543.978 1087.31C532.078 1112.01 524.078 1138.31 520.078 1165.71H316.478C319.278 1131.41 325.778 1097.61 335.778 1065.01C345.778 1032.41 359.378 1000.81 376.178 971.106L543.978 1087.31ZM557.678 789.606C587.578 772.806 619.378 759.206 652.378 749.106C684.778 739.206 718.378 732.806 752.378 730.106V933.506C725.078 937.506 698.678 945.406 673.878 957.306L557.678 789.606ZM380.878 674.006L415.078 723.506L310.078 828.506L260.578 794.306L380.878 674.006ZM110.578 996.906C127.778 940.806 151.878 887.006 182.378 836.806L310.578 925.606C289.278 962.106 272.178 1001.01 259.778 1041.31C247.378 1081.51 239.578 1123.31 236.578 1165.71H80.5783C83.7783 1108.31 93.7783 1051.61 110.578 996.906ZM752.278 1916.81C577.178 1906.91 412.578 1833.31 288.278 1709.11C164.078 1584.91 90.4783 1420.41 80.5783 1245.11H520.078C528.578 1304.01 555.278 1357.31 597.678 1399.71C640.078 1442.11 693.378 1468.81 752.278 1477.31V1916.81ZM792.078 1400.71C739.878 1400.71 690.878 1380.41 653.978 1343.51C617.078 1306.61 596.778 1257.61 596.778 1205.41C596.778 1153.21 617.078 1104.21 653.978 1067.31C690.878 1030.41 739.878 1010.11 792.078 1010.11C844.278 1010.11 893.278 1030.41 930.178 1067.31C967.078 1104.21 987.378 1153.21 987.378 1205.41C987.378 1257.61 967.078 1306.61 930.178 1343.51C893.278 1380.41 844.278 1400.71 792.078 1400.71ZM1000.58 1886.91C945.878 1903.61 889.178 1913.71 831.878 1916.91V1760.81C874.178 1757.81 915.978 1750.01 956.278 1737.61C996.578 1725.21 1035.48 1708.11 1071.98 1686.81L1160.78 1815.01C1110.48 1845.61 1056.68 1869.81 1000.58 1886.91ZM1202.58 1735.91L1168.38 1686.41L1273.08 1581.71L1322.58 1615.91L1202.58 1735.91ZM1401.88 1574.11L1273.68 1485.31C1282.78 1469.71 1291.18 1453.41 1298.88 1436.51L1435.28 1512.31C1424.88 1533.91 1413.68 1554.61 1401.88 1574.11ZM1465.68 1438.21L1066.68 1216.51C1066.78 1213.11 1066.88 1209.51 1066.88 1205.51C1066.88 1195.61 1066.28 1185.41 1065.18 1175.11L1499.58 1289.41C1493.68 1340.11 1482.28 1390.11 1465.68 1438.21ZM1504.48 1208.31L1347.78 1167.01C1344.78 1123.11 1336.58 1079.61 1323.48 1037.81C1310.38 996.206 1292.28 956.206 1269.68 918.606L1382.18 806.006C1419.38 860.706 1448.58 920.006 1469.08 982.406C1490.38 1047.31 1502.28 1115.51 1504.28 1184.91C1504.38 1192.01 1504.48 1199.41 1504.48 1208.31ZM1616.18 1521.81L1536.28 1477.41C1555.48 1424.81 1569.08 1370.31 1576.58 1315.01L1699.78 1438.21L1616.18 1521.81ZM1818.28 1157.61L1870.28 1209.61L1834.08 1260.41L1767.48 1193.81L1818.28 1157.61ZM1701.88 1240.71L1787.18 1326.01L1750.98 1376.81L1651.18 1277.01L1701.88 1240.71ZM1583.68 1182.11C1581.38 1103.21 1567.58 1025.71 1542.78 952.006C1518.48 879.906 1483.68 811.606 1439.28 749.006L1823.28 365.006L1908.88 450.506L1583.68 1182.11Z" fill="#161B22"/>
</svg>
